<svg width="17" height="17" viewBox="0 0 17 17" fill="none" xmlns="http://www.w3.org/2000/svg">
<path d="M4.9954 2.1191C5.85573 2.1191 6.65089 2.34504 7.38087 2.79694C8.09347 3.23145 8.6453 3.81804 9.03636 4.55671C9.42743 4.00923 9.91842 3.57472 10.5094 3.25318C11.1264 2.93164 11.7868 2.77087 12.4907 2.77087H14.7719V4.40029C14.7719 5.16503 14.5807 5.87763 14.1984 6.53809C13.8247 7.18117 13.3163 7.68955 12.6732 8.06323C12.0128 8.4456 11.3002 8.63679 10.5354 8.63679H9.55778V9.28856H12.8166V13.8509C12.8166 14.0856 12.758 14.3028 12.6406 14.5027C12.5233 14.7026 12.3647 14.8612 12.1649 14.9785C11.965 15.0958 11.7477 15.1545 11.5131 15.1545H6.29893C6.0643 15.1545 5.84704 15.0958 5.64716 14.9785C5.44729 14.8612 5.28869 14.7026 5.17137 14.5027C5.05405 14.3028 4.9954 14.0856 4.9954 13.8509V9.28856H8.25424V7.98502H6.9507C6.12513 7.98502 5.35604 7.77645 4.64344 7.35932C3.95691 6.95957 3.41377 6.41643 3.01402 5.7299C2.59689 5.0173 2.38832 4.24821 2.38832 3.42264V2.1191H4.9954ZM11.5131 10.5921H6.29893V13.8509H11.5131V10.5921ZM13.4684 4.0744H12.4907C11.9606 4.0744 11.4718 4.20693 11.0243 4.47198C10.5767 4.73704 10.2204 5.09334 9.95536 5.54089C9.69031 5.98843 9.55778 6.47726 9.55778 7.00737V7.33325H10.5354C11.0655 7.33325 11.5544 7.20072 12.0019 6.93567C12.4495 6.67062 12.8058 6.31432 13.0708 5.86677C13.3359 5.41922 13.4684 4.9304 13.4684 4.40029V4.0744ZM4.9954 3.42264H3.69186C3.69186 4.01357 3.83742 4.55889 4.12854 5.05858C4.41967 5.55827 4.81507 5.95367 5.31476 6.2448C5.81445 6.53592 6.35977 6.68148 6.9507 6.68148H8.25424C8.25424 6.09054 8.10868 5.54523 7.81756 5.04554C7.52643 4.54585 7.13103 4.15044 6.63134 3.85932C6.13165 3.5682 5.58633 3.42264 4.9954 3.42264Z" fill="#FF9800"/>
</svg>
