<svg width="23" height="22" viewBox="0 0 23 22" fill="none" xmlns="http://www.w3.org/2000/svg">
<path d="M11.61 4.24496C12.2867 3.63829 13.0625 3.23871 13.9375 3.04621C14.8125 2.85371 15.6758 2.87413 16.5275 3.10746C17.4142 3.35246 18.1812 3.79871 18.8287 4.44621C19.4762 5.09371 19.9225 5.86079 20.1675 6.74746C20.4008 7.59913 20.4212 8.45954 20.2287 9.32871C20.0362 10.1979 19.6367 10.9766 19.03 11.665L11.61 19.085L4.19 11.665C3.58333 10.9766 3.18375 10.1979 2.99125 9.32871C2.79875 8.45954 2.81917 7.59913 3.0525 6.74746C3.2975 5.86079 3.74667 5.09371 4.4 4.44621C5.05333 3.79871 5.8175 3.35246 6.6925 3.10746C7.54417 2.87413 8.4075 2.85371 9.2825 3.04621C10.1575 3.23871 10.9333 3.63829 11.61 4.24496ZM17.5775 5.67996C17.1458 5.24829 16.6442 4.95371 16.0725 4.79621C15.5008 4.63871 14.9233 4.62413 14.34 4.75246C13.7567 4.88079 13.2375 5.14913 12.7825 5.55746L11.61 6.60746L10.4375 5.55746C9.99416 5.14913 9.47792 4.88079 8.88875 4.75246C8.29958 4.62413 7.71917 4.63871 7.1475 4.79621C6.57583 4.95371 6.07417 5.24829 5.6425 5.67996C5.21083 6.11163 4.91333 6.61329 4.75 7.18496C4.58667 7.75663 4.56625 8.33121 4.68875 8.90871C4.81125 9.48621 5.07083 10.0025 5.4675 10.4575L11.61 16.6175L17.7525 10.4575C18.1492 10.0025 18.4087 9.48621 18.5312 8.90871C18.6537 8.33121 18.6333 7.75663 18.47 7.18496C18.3067 6.61329 18.0092 6.11163 17.5775 5.67996Z" fill="#4FB573" fill-opacity="0.4"/>
</svg>
