<svg width="20" height="21" viewBox="0 0 20 21" fill="none" xmlns="http://www.w3.org/2000/svg">
<g clip-path="url(#clip0_2001_271)">
<path fill-rule="evenodd" clip-rule="evenodd" d="M17.3256 13.4266C17.1612 17.3527 13.9275 20.4856 9.96093 20.4856C5.88917 20.4856 2.58838 17.0738 2.58838 13.1131C2.58838 12.5836 2.57889 11.5256 3.3727 9.74051C3.84776 8.6722 4.14572 8.00106 4.31387 7.38757C4.40627 7.0504 4.58595 6.51471 5.09819 7.38757C5.40023 7.90224 5.41191 8.64247 5.41191 8.64247C5.41191 8.64247 6.53568 7.78012 7.29427 6.13267C8.40634 3.71753 7.51905 2.27385 7.21584 1.26993C7.11089 0.922632 7.04501 0.298475 7.76485 0.564043C8.49835 0.83471 10.4375 2.19212 11.4511 3.62287C12.8978 5.66483 13.4119 7.62287 13.4119 7.62287C13.4119 7.62287 13.8751 7.04796 14.0394 6.4464C14.2249 5.7671 14.2276 5.09432 14.8236 5.81902C15.3904 6.5082 16.2322 7.80334 16.706 9.03463C17.5663 11.2706 17.3256 13.4266 17.3256 13.4266Z" fill="url(#paint0_linear_2001_271)"/>
<path fill-rule="evenodd" clip-rule="evenodd" d="M9.96083 20.4852C7.14522 20.4852 4.86279 18.2028 4.86279 15.3872C4.86279 13.6883 5.54742 12.6568 6.97228 11.2581C7.8846 10.3625 8.73848 9.26249 9.10138 8.51347C9.17283 8.36602 9.33542 7.59762 9.96232 8.49731C10.2912 8.96915 10.8067 9.80829 11.1373 10.5244C11.7072 11.7592 11.8432 12.9558 11.8432 12.9558C11.8432 12.9558 12.4017 12.6267 12.7844 11.7793C12.9077 11.5063 13.1571 10.4724 13.8544 11.5061C14.366 12.2647 15.0688 13.6286 15.0589 15.3872C15.0589 18.2028 12.7764 20.4852 9.96083 20.4852Z" fill="#FC9502"/>
<path fill-rule="evenodd" clip-rule="evenodd" d="M10.0394 14.917C10.7649 14.917 10.7649 16.2604 11.6864 18.0542C12.3001 19.2487 11.3822 20.4856 10.0394 20.4856C8.69654 20.4856 8.00015 19.3971 8.00015 18.0542C8.00015 16.7115 9.31388 14.917 10.0394 14.917Z" fill="#FCE202"/>
</g>
<defs>
<linearGradient id="paint0_linear_2001_271" x1="9.97199" y1="20.5004" x2="9.97199" y2="0.515102" gradientUnits="userSpaceOnUse">
<stop stop-color="#FF4C0D"/>
<stop offset="1" stop-color="#FC9502"/>
</linearGradient>
<clipPath id="clip0_2001_271">
<rect width="20" height="20" fill="white" transform="translate(0 0.5)"/>
</clipPath>
</defs>
</svg>
