<svg width="24" height="25" viewBox="0 0 24 25" fill="none" xmlns="http://www.w3.org/2000/svg">
<path d="M9.09644 3.81476C10.3496 2.84403 12.3345 2.73587 13.7234 3.52863L13.9929 3.69952L19.7537 7.7298C20.2227 8.05826 20.6665 8.59692 20.9939 9.22394C21.3213 9.85112 21.5095 10.5242 21.5095 11.0999V17.8802C21.5094 20.1538 19.664 22.0001 17.3904 22.0003H6.61011C4.3378 22.0003 2.49022 20.1455 2.48999 17.8704V10.97L2.4978 10.765C2.53449 10.2763 2.69782 9.72066 2.95874 9.19073C3.21951 8.66116 3.56136 8.18998 3.92847 7.85773L4.08765 7.72394L9.09644 3.81476ZM11.9998 14.2503C11.3137 14.2504 10.7498 14.8142 10.7498 15.5003V18.5003C10.7499 19.1862 11.3138 19.7502 11.9998 19.7503C12.6858 19.7503 13.2496 19.1863 13.2498 18.5003V15.5003C13.2498 14.8142 12.6859 14.2503 11.9998 14.2503Z" stroke="#0FC570" stroke-opacity="0.4"/>
</svg>
