<svg width="24" height="25" viewBox="0 0 24 25" fill="none" xmlns="http://www.w3.org/2000/svg">
<path d="M20.04 7.32006L14.28 3.29006C12.71 2.19006 10.3 2.25006 8.79 3.42006L3.78 7.33006C2.78 8.11006 1.99 9.71006 1.99 10.9701V17.8701C1.99 20.4201 4.06 22.5001 6.61 22.5001H17.39C19.94 22.5001 22.01 20.4301 22.01 17.8801V11.1001C22.01 9.75006 21.14 8.09006 20.04 7.32006ZM12.75 18.5001C12.75 18.9101 12.41 19.2501 12 19.2501C11.59 19.2501 11.25 18.9101 11.25 18.5001V15.5001C11.25 15.0901 11.59 14.7501 12 14.7501C12.41 14.7501 12.75 15.0901 12.75 15.5001V18.5001Z" fill="#0FC570"/>
</svg>
