<svg width="152" height="152" viewBox="0 0 152 152" fill="none" xmlns="http://www.w3.org/2000/svg">
<g id="Frame 1261153222">
<rect width="152" height="152" rx="37.5309" fill="white"/>
<g id="Group 34237">
<path id="Rectangle 497" d="M97.5802 109.778C102.172 107.55 104.876 106.509 109.778 105.086C111.954 104.455 113.156 103.94 115.407 103.679C117.409 103.447 120.568 103.679 120.568 103.679L116.346 108.839C113.934 111.549 112.517 113.03 109.778 115.407C107.01 117.809 105.434 119.187 102.272 121.037C97.07 124.08 93.616 124.911 87.7284 126.197C82.3319 127.376 73.6543 127.605 73.6543 127.605C73.6543 127.605 79.6486 121.532 83.9753 118.222C88.9422 114.423 91.9543 112.508 97.5802 109.778Z" fill="#0FC570"/>
<path id="Rectangle 498" d="M116.815 100.864C116.815 100.864 109.884 101.322 105.556 102.271C100.066 103.475 97.0956 104.701 91.9506 106.963C85.7927 109.67 82.2756 111.314 76.9383 115.407C72.0041 119.192 65.679 126.667 65.679 126.667C65.679 126.667 60.7391 125.802 57.7037 124.79C54.6683 123.778 50.1975 121.506 50.1975 121.506C50.1975 121.506 53.6625 117.507 56.2963 115.407C58.6806 113.507 60.2747 112.795 62.8642 111.185C65.5858 109.493 67.0327 108.392 69.9012 106.963C71.5163 106.158 72.4707 105.811 74.1234 105.086C76.6794 103.966 78.0545 103.185 80.6913 102.271C83.3789 101.341 84.9561 101.03 87.7284 100.395C91.8973 99.4395 94.2542 98.8484 98.5185 98.5184C101.989 98.2498 103.98 98.0722 107.432 98.5184C109.285 98.7579 110.31 99.0055 112.123 99.4567C113.98 99.9185 116.815 100.864 116.815 100.864Z" fill="#0FC570"/>
<path id="Rectangle 499" d="M56.2963 42.2222C56.2963 42.2222 57.2346 42.6913 60.5185 45.5061C63.8025 48.3209 64.2716 49.2592 64.2716 49.2592C64.2716 49.2592 67.5555 52.5432 68.4938 56.7654C69.4321 60.9876 68.963 65.2098 68.963 65.2098C68.963 65.2098 70.5873 67.9841 71.3086 69.9012C72.1066 72.0222 72.716 75.5308 72.716 75.5308C72.716 75.5308 76.4962 66.6677 79.7531 61.4567C82.6661 56.7959 84.8147 54.5294 88.1975 50.1975C91.2441 46.2961 96.1728 40.3456 96.1728 40.3456C96.1728 40.3456 92.0266 43.6199 89.6049 45.9753C83.9836 51.4427 77.4074 61.9259 77.4074 61.9259C77.4074 61.9259 75.716 57.727 75.5309 54.8888C75.3132 51.5527 76.9383 46.4444 76.9383 46.4444C76.9383 46.4444 78.8941 41.951 80.6913 39.4074C82.5618 36.7602 83.863 35.4215 86.321 33.3086C89.4432 30.6248 91.5051 29.423 95.2346 27.679C99.066 25.8873 105.556 24.395 105.556 24.395C105.556 24.395 106.673 28.9329 106.963 31.9012C107.283 35.1833 106.963 40.3456 106.963 40.3456C106.963 40.3456 106.209 45.3644 105.086 48.3209C104.271 50.4669 104.033 51.584 102.741 53.4814C100.771 56.3745 99.4763 57.9956 96.642 60.0493C94.783 61.3963 93.6156 62.0185 91.4815 62.8642C89.5395 63.6337 88.2229 63.4077 86.321 64.2716C84.7473 64.9863 83.8762 65.4878 82.5679 66.6172C81.2893 67.721 80.715 68.5128 79.7531 69.9012C76.9148 73.9979 76.6947 77.1636 76 82.0987C75.3871 86.4528 76 93.358 76 93.358C76 93.358 82.0295 93.3522 85.8518 93.8271C89.5601 94.2879 95.2346 95.7037 95.2346 95.7037C95.2346 95.7037 76.5371 97.5916 65.679 102.272C56.0654 106.415 43.1605 116.815 43.1605 116.815C43.1605 116.815 38.607 113.069 36.1234 110.247C33.872 107.689 30.963 103.21 30.963 103.21C30.963 103.21 42.1481 98.1213 49.7284 96.1728C56.73 94.373 68.0247 93.358 68.0247 93.358C68.0247 93.358 70.7 83.7805 68.4938 78.3456C66.6397 73.778 67.6062 74.5993 66.1481 72.716C64.2815 70.3049 59.5802 68.4938 59.5802 68.4938C59.5802 68.4938 53.4815 67.0864 49.2592 63.8024C45.037 60.5185 42.2222 54.4197 42.2222 54.4197C42.2222 54.4197 40.8148 51.1358 40.3457 46.9135C39.8765 42.6913 40.8148 38.9382 40.8148 38.9382C40.8148 38.9382 45.4383 38.8449 48.321 39.4074C51.5627 40.0399 56.2963 42.2222 56.2963 42.2222Z" fill="#0FC570"/>
<path id="Rectangle 501" d="M48.7901 47.8518C48.7901 47.8518 52.3329 49.9842 54.4197 51.6049C56.7753 53.4342 58.0552 54.5477 60.0494 56.7654C61.8869 58.8089 63.2593 59.8401 64.2716 62.395C64.9598 64.132 65.2099 67.0864 65.2099 67.0864C65.2099 67.0864 60.8353 60.9208 57.7037 57.2345C54.4315 53.3828 48.7901 47.8518 48.7901 47.8518Z" fill="white"/>
</g>
</g>
</svg>
