<svg width="34" height="32" viewBox="0 0 34 32" fill="none" xmlns="http://www.w3.org/2000/svg">
<g id="Component 1">
<path id="Vector" d="M17.1957 23.4636C15.7879 23.4636 14.4757 23.1073 13.259 22.3947C12.0772 21.6995 11.1386 20.761 10.4434 19.5791C9.7308 18.3625 9.3745 17.0502 9.3745 15.6424C9.3745 14.2346 9.7308 12.9224 10.4434 11.7057C11.1386 10.5238 12.0772 9.5853 13.259 8.89008C14.4757 8.17747 15.7879 7.82117 17.1957 7.82117C18.6035 7.82117 19.9158 8.17747 21.1324 8.89008C22.3143 9.5853 23.2528 10.5238 23.9481 11.7057C24.6607 12.9224 25.017 14.2346 25.017 15.6424C25.017 17.0502 24.6607 18.3625 23.9481 19.5791C23.2528 20.761 22.3143 21.6995 21.1324 22.3947C19.9158 23.1073 18.6035 23.4636 17.1957 23.4636ZM17.1957 20.8566C18.1343 20.8566 19.0033 20.6219 19.8028 20.1526C20.6023 19.6834 21.2367 19.049 21.706 18.2495C22.1752 17.45 22.4099 16.581 22.4099 15.6424C22.4099 14.7039 22.1752 13.8348 21.706 13.0353C21.2367 12.2358 20.6023 11.6014 19.8028 11.1322C19.0033 10.6629 18.1343 10.4283 17.1957 10.4283C16.2572 10.4283 15.3882 10.6629 14.5886 11.1322C13.7891 11.6014 13.1548 12.2358 12.6855 13.0353C12.2162 13.8348 11.9816 14.7039 11.9816 15.6424C11.9816 16.581 12.2162 17.45 12.6855 18.2495C13.1548 19.049 13.7891 19.6834 14.5886 20.1526C15.3882 20.6219 16.2572 20.8566 17.1957 20.8566ZM15.8922 1.30348H18.4993V5.2141H15.8922V1.30348ZM15.8922 26.0707H18.4993V29.9813H15.8922V26.0707ZM6.14172 6.41335L7.96668 4.5884L10.7562 7.3519L8.90522 9.20292L6.14172 6.41335ZM23.6352 23.9329L25.4862 22.0819L28.2497 24.8715L26.4248 26.6964L23.6352 23.9329ZM26.4248 4.5884L28.2497 6.41335L25.4862 9.20292L23.6352 7.3519L26.4248 4.5884ZM8.90522 22.0819L10.7562 23.9329L7.96668 26.6964L6.14172 24.8715L8.90522 22.0819ZM31.5346 14.3389V16.9459H27.624V14.3389H31.5346ZM6.76742 14.3389V16.9459H2.85681V14.3389H6.76742Z" fill="#4CAF50"/>
</g>
</svg>
