<svg width="91" height="104" viewBox="0 0 91 104" fill="none" xmlns="http://www.w3.org/2000/svg">
<path d="M67.3148 85.3827C71.9064 83.1547 74.6111 82.1141 79.5123 80.6913C81.6887 80.0596 82.8908 79.5446 85.142 79.2839C87.1439 79.0521 90.3025 79.2839 90.3025 79.2839L86.0802 84.4444C83.6684 87.1538 82.2518 88.6347 79.5123 91.0123C76.7451 93.4141 75.1688 94.7916 72.0062 96.642C66.8046 99.6853 63.3506 100.516 57.463 101.802C52.0665 102.981 43.3889 103.21 43.3889 103.21C43.3889 103.21 49.3832 97.1365 53.7099 93.8271C58.6768 90.028 61.6889 88.1127 67.3148 85.3827Z" fill="white"/>
<path d="M86.5494 76.4691C86.5494 76.4691 79.6185 76.9273 75.2901 77.8765C69.8005 79.0804 66.8302 80.3065 61.6852 82.5679C55.5272 85.2746 52.0102 86.9186 46.6728 91.0123C41.7387 94.7968 35.4136 102.272 35.4136 102.272C35.4136 102.272 30.4737 101.407 27.4383 100.395C24.4029 99.3833 19.9321 97.1111 19.9321 97.1111C19.9321 97.1111 23.3971 93.112 26.0309 91.0123C28.4152 89.1116 30.0093 88.4001 32.5988 86.7901C35.3204 85.0979 36.7673 83.9971 39.6358 82.5679C41.2509 81.7632 42.2053 81.4155 43.858 80.6914C46.414 79.5714 47.7891 78.7899 50.4259 77.8765C53.1134 76.9457 54.6907 76.6354 57.463 76C61.6319 75.0445 63.9888 74.4535 68.2531 74.1235C71.7237 73.8549 73.7144 73.6772 77.1667 74.1235C79.0196 74.3629 80.0449 74.6106 81.858 75.0617C83.7142 75.5236 86.5494 76.4691 86.5494 76.4691Z" fill="white"/>
<path d="M26.0309 17.8272C26.0309 17.8272 26.9691 18.2963 30.2531 21.1111C33.537 23.9259 34.0062 24.8642 34.0062 24.8642C34.0062 24.8642 37.2901 28.1481 38.2284 32.3704C39.1667 36.5926 38.6975 40.8148 38.6975 40.8148C38.6975 40.8148 40.3219 43.589 41.0432 45.5062C41.8412 47.6272 42.4506 51.1358 42.4506 51.1358C42.4506 51.1358 46.2308 42.2727 49.4877 37.0617C52.4007 32.4009 54.5493 30.1344 57.9321 25.8025C60.9787 21.901 65.9074 15.9506 65.9074 15.9506C65.9074 15.9506 61.7612 19.2249 59.3395 21.5802C53.7182 27.0477 47.142 37.5309 47.142 37.5309C47.142 37.5309 45.4506 33.332 45.2654 30.4938C45.0478 27.1577 46.6729 22.0494 46.6729 22.0494C46.6729 22.0494 48.6286 17.556 50.4259 15.0123C52.2964 12.3652 53.5976 11.0264 56.0556 8.91358C59.1777 6.22981 61.2397 5.02796 64.9691 3.28395C68.8006 1.49225 75.2901 0 75.2901 0C75.2901 0 76.4077 4.53787 76.6975 7.50617C77.018 10.7883 76.6975 15.9506 76.6975 15.9506C76.6975 15.9506 75.9441 20.9694 74.821 23.9259C74.0058 26.0719 73.7674 27.189 72.4753 29.0864C70.5052 31.9795 69.2109 33.6006 66.3766 35.6543C64.5176 37.0012 63.3502 37.6235 61.2161 38.4691C59.2741 39.2387 57.9575 39.0127 56.0556 39.8765C54.4819 40.5913 53.6108 41.0928 52.3025 42.2222C51.0239 43.326 50.4496 44.1177 49.4877 45.5062C46.6494 49.6028 46.4293 52.7685 45.7346 57.7037C45.1217 62.0578 45.7346 68.963 45.7346 68.963C45.7346 68.963 51.7641 68.9571 55.5864 69.4321C59.2947 69.8929 64.9691 71.3086 64.9691 71.3086C64.9691 71.3086 46.2717 73.1966 35.4136 77.8765C25.8 82.0201 12.8951 92.4198 12.8951 92.4198C12.8951 92.4198 8.34158 88.6738 5.85803 85.8519C3.60655 83.2936 0.69754 78.8148 0.69754 78.8148C0.69754 78.8148 11.8827 73.7263 19.463 71.7778C26.4646 69.978 37.7593 68.963 37.7593 68.963C37.7593 68.963 40.4346 59.3855 38.2284 53.9506C36.3743 49.3829 37.3408 50.2043 35.8827 48.321C34.0161 45.9099 29.3148 44.0988 29.3148 44.0988C29.3148 44.0988 23.2161 42.6914 18.9938 39.4074C14.7716 36.1235 11.9568 30.0247 11.9568 30.0247C11.9568 30.0247 10.5494 26.7407 10.0803 22.5185C9.61112 18.2963 10.5494 14.5432 10.5494 14.5432C10.5494 14.5432 15.1729 14.4499 18.0556 15.0123C21.2973 15.6448 26.0309 17.8272 26.0309 17.8272Z" fill="white"/>
<path d="M18.5247 23.4568C18.5247 23.4568 22.0674 25.5892 24.1543 27.2099C26.5098 29.0392 27.7898 30.1527 29.7839 32.3704C31.6215 34.4138 32.9939 35.4451 34.0062 38C34.6944 39.737 34.9444 42.6914 34.9444 42.6914C34.9444 42.6914 30.5699 36.5257 27.4383 32.8395C24.1661 28.9877 18.5247 23.4568 18.5247 23.4568Z" fill="white"/>
</svg>
